<svg width="1280" height="720" viewBox="0 0 1280 720" fill="none" xmlns="http://www.w3.org/2000/svg">
<g clip-path="url(#clip0_217_284)">
<path d="M1329 571.296C738.408 479.225 514.088 465.483 -73 571.296V852.319L1329 864V571.296Z" fill="#5C3824" stroke="black"/>
</g>
<g clip-path="url(#clip1_217_284)">
<rect x="242" y="126.84" width="796" height="456.876" fill="#D9D9D9"/>
<rect x="463.373" y="108" width="353.254" height="38.858" fill="#808080"/>
<rect x="322.071" y="575.473" width="635.858" height="18.8402" fill="#808080"/>
<rect x="623.515" y="594.313" width="31.7929" height="133.059" fill="#464646"/>
</g>
<line x1="297" y1="526.5" x2="982" y2="526.5" stroke="#FF4646"/>
<line x1="297" y1="486.314" x2="982" y2="486.314" stroke="#FF4646"/>
<line y1="-0.5" x2="685.001" y2="-0.5" transform="matrix(0.999999 -0.00218022 0.00138246 0.999999 297 446.629)" stroke="#FF4646"/>
<line x1="297" y1="404.686" x2="982" y2="404.686" stroke="#FF4646"/>
<line y1="-0.5" x2="685.001" y2="-0.5" transform="matrix(0.999999 -0.00218022 0.00138246 0.999999 297 365)" stroke="#FF4646"/>
<line x1="297" y1="323.057" x2="982" y2="323.057" stroke="#FF4646"/>
<line x1="297" y1="282.871" x2="982" y2="282.871" stroke="#FF4646"/>
<line x1="297" y1="242.686" x2="982" y2="242.686" stroke="#FF4646"/>
<line x1="297" y1="202.5" x2="982" y2="202.5" stroke="#FF4646"/>
<line x1="297" y1="505.149" x2="982" y2="505.149" stroke="#A2A2A2"/>
<line x1="297" y1="464.964" x2="982" y2="464.964" stroke="#A2A2A2"/>
<line x1="297" y1="424.778" x2="982" y2="424.778" stroke="#A2A2A2"/>
<line x1="297" y1="384.59" x2="982" y2="384.59" stroke="black"/>
<line y1="-0.5" x2="685.001" y2="-0.5" transform="matrix(0.999999 -0.00213578 0.00141123 0.999999 297 344.908)" stroke="black"/>
<line x1="297" y1="302.964" x2="982" y2="302.964" stroke="black"/>
<line x1="297" y1="262.779" x2="982" y2="262.779" stroke="black"/>
<line y1="-0.5" x2="685.001" y2="-0.5" transform="matrix(0.999999 -0.00218022 0.00138246 0.999999 297 223.093)" stroke="black"/>
<defs>
<clipPath id="clip0_217_284">
<rect width="1280" height="720" fill="white"/>
</clipPath>
<clipPath id="clip1_217_284">
<rect width="1280" height="720" fill="white"/>
</clipPath>
</defs>
</svg>
